Coordinates
version=1
nRows=16
nColumns=22
inDegrees=yes

Units are S.I. units (second, meters, Newtons, ...)
If the header above contains a line with 'inDegrees', this indicates whether rotational values are in degrees (yes) or radians (no).

endheader
time	pelvis_tilt	pelvis_list	pelvis_rotation	pelvis_tx	pelvis_ty	pelvis_tz	hip_flexion_r	hip_adduction_r	hip_rotation_r	knee_angle_r	ankle_angle_r	subtalar_angle_r	hip_flexion_l	hip_adduction_l	hip_rotation_l	knee_angle_l	ankle_angle_l	subtalar_angle_l	lumbar_extension	lumbar_bending	lumbar_rotation
      3.94000000	     -1.41236134	      2.03711548	     -1.60225118	     -1.37142134	      1.05762032	     -0.28966816	     -0.35532400	      1.28535065	     -4.57957388	    -19.67922672	     20.80762173	     -6.91151430	     26.89556805	     -2.49297144	    -11.28776631	    -27.67897948	     10.11885550	      1.76954869	    -11.26868082	     -4.74984136	     -2.21808049
      3.95000000	     -1.22405992	      1.94596857	     -1.53868564	     -1.37697292	      1.05902798	     -0.28902879	     -0.26491322	      1.45362414	     -4.47470845	    -19.61970612	     20.47446135	     -6.94967443	     26.74140089	     -2.64602708	    -10.75453658	    -29.01052337	     10.15504166	      1.37191742	    -11.44344884	     -4.64574024	     -2.33949060
      3.96000000	     -1.06583671	      1.89982243	     -1.49055516	     -1.38236570	      1.06037851	     -0.28844175	     -0.14004247	      1.56370985	     -4.41264310	    -19.57861772	     20.16973184	     -7.02171197	     26.58985299	     -2.71473922	    -10.09595286	    -30.34495590	     10.16464250	      0.89266946	    -11.57055171	     -4.59458556	     -2.42475972
      3.97000000	     -0.90327970	      1.87005568	     -1.47132937	     -1.38758469	      1.06171667	     -0.28786032	     -0.04473371	      1.65574157	     -4.31704433	    -19.50755355	     19.85070588	     -7.06810261	     26.40051595	     -2.73520173	     -9.33202207	    -31.67464689	     10.22832076	      0.59878979	    -11.69133436	     -4.56543338	     -2.49207064
      3.98000000	     -0.77530477	      1.86528951	     -1.46327429	     -1.39264834	      1.06294894	     -0.28733870	      0.07668047	      1.71338494	     -4.24045698	    -19.43370623	     19.55721791	     -7.12986851	     26.21552961	     -2.67972971	     -8.43845960	    -32.98474917	     10.30510038	      0.29561666	    -11.76237538	     -4.56279360	     -2.53363510
      3.99000000	     -0.66998681	      1.86726341	     -1.47297002	     -1.39754831	      1.06408042	     -0.28686717	      0.20576633	      1.75648204	     -4.16815223	    -19.34732182	     19.28287064	     -7.18786297	     26.02313865	     -2.57551685	     -7.45931631	    -34.27247131	     10.39399505	      0.04066218	    -11.79710658	     -4.56545093	     -2.54897180
      4.00000000	     -0.58417015	      1.86633545	     -1.49535843	     -1.40228070	      1.06510238	     -0.28646485	      0.34192442	      1.79333543	     -4.10454593	    -19.25490665	     19.03144248	     -7.23391232	     25.81880983	     -2.43285746	     -6.41381755	    -35.53010966	     10.49197550	     -0.15905432	    -11.79924295	     -4.55732650	     -2.53983594
      4.01000000	     -0.51380959	      1.85153546	     -1.52446867	     -1.40683225	      1.06601656	     -0.28611868	      0.47719993	      1.83795182	     -4.04847127	    -19.15302785	     18.80327489	     -7.25701692	     25.59547687	     -2.26665872	     -5.32267166	    -36.74635814	     10.60357304	     -0.30018615	    -11.77209704	     -4.53048757	     -2.51525264
      4.02000000	     -0.45523798	      1.82125555	     -1.55965055	     -1.41119552	      1.06682676	     -0.28584331	      0.60939514	      1.89049723	     -3.99807556	    -19.04646795	     18.60375058	     -7.24964032	     25.34568399	     -2.08496394	     -4.21363585	    -37.91083546	     10.72858009	     -0.38825687	    -11.71847618	     -4.47830185	     -2.47318986
      4.03000000	     -0.40789436	      1.77388239	     -1.60133389	     -1.41535501	      1.06754299	     -0.28563528	      0.73558068	      1.95364217	     -3.95601993	    -18.93217470	     18.43692634	     -7.20694002	     25.06276019	     -1.89747256	     -3.11642465	    -39.00743795	     10.86540149	     -0.43185725	    -11.63548655	     -4.39836845	     -2.41490645
      4.04000000	     -0.37061095	      1.70927912	     -1.64855846	     -1.41931165	      1.06817376	     -0.28548118	      0.85495059	      2.02761851	     -3.92519499	    -18.81064788	     18.30202703	     -7.12507721	     24.74575870	     -1.71541860	     -2.05555081	    -40.02924041	     11.00974037	     -0.43862675	    -11.52548936	     -4.29422682	     -2.34138677
      4.05000000	     -0.34150336	      1.62942894	     -1.70155723	     -1.42305530	      1.06873417	     -0.28537485	      0.96288933	      2.11156035	     -3.90372329	    -18.67718985	     18.19759682	     -7.00415645	     24.38991253	     -1.54682618	     -1.05537621	    -40.96398187	     11.15984099	     -0.41710339	    -11.38954019	     -4.16703607	     -2.25911766
      4.06000000	     -0.31987990	      1.53551984	     -1.76116245	     -1.42659243	      1.06923765	     -0.28529779	      1.05949533	      2.20559249	     -3.89223586	    -18.53179067	     18.12101853	     -6.84577285	     23.99511209	     -1.40125905	     -0.13642291	    -41.80226929	     11.31010192	     -0.37466163	    -11.22941995	     -4.02207631	     -2.16944251
      4.07000000	     -0.30659227	      1.43140853	     -1.82923012	     -1.42992617	      1.06969376	     -0.28521982	      1.14367849	      2.30828916	     -3.88399387	    -18.36915194	     18.07133647	     -6.65652812	     23.56145993	     -1.28654477	      0.68368959	    -42.53171235	     11.45844155	     -0.31967570	    -11.04585812	     -3.86747236	     -2.07426738
      4.08000000	     -0.30292032	      1.31753841	     -1.89309585	     -1.43306179	      1.07010992	     -0.28519008	      1.21759125	      2.41628030	     -3.89125641	    -18.19226890	     18.04063095	     -6.33740751	     23.09634679	     -1.20149517	      1.40488614	    -43.14939724	     11.59516376	     -0.20633642	    -10.83738814	     -3.69476972	     -1.99412203
      4.09000000	     -0.30322190	      1.18203998	     -1.96965259	     -1.43601524	      1.07047807	     -0.28511362	      1.26882632	      2.55293943	     -3.87870740	    -17.98447364	     18.03490417	     -6.17694176	     22.59338601	     -1.17843015	      1.99997820	    -43.64821204	     11.78056776	     -0.17970927	    -10.61498991	     -3.50664346	     -1.91215556
